<?xml version="1.0" standalone="no"?>
<!DOCTYPE svg PUBLIC "-//W3C//DTD SVG 20010904//EN"
 "http://www.w3.org/TR/2001/REC-SVG-20010904/DTD/svg10.dtd">
<svg version="1.0" xmlns="http://www.w3.org/2000/svg"
 width="200.000000pt" height="200.000000pt" viewBox="0 0 200.000000 200.000000"
 preserveAspectRatio="xMidYMid meet">

<g transform="translate(0.000000,200.000000) scale(0.100000,-0.100000)"
fill="#000000" stroke="none">
<path d="M838 1985 c-400 -65 -727 -379 -813 -780 -28 -128 -24 -325 9 -450
148 -566 739 -888 1288 -701 314 107 554 364 645 692 25 87 28 116 28 244 0
158 -16 252 -63 370 -123 311 -386 538 -712 615 -96 22 -278 27 -382 10z
m-173 -193 c17 -10 40 -38 54 -66 23 -45 24 -53 13 -105 -23 -108 -119 -211
-237 -252 -71 -25 -121 -24 -175 4 -140 71 -98 273 82 388 92 59 192 71 263
31z m674 -482 c80 -40 131 -137 117 -222 -24 -146 -182 -231 -313 -167 -127
61 -163 230 -71 335 71 81 174 102 267 54z m-393 -387 c72 -105 163 -153 290
-153 94 0 166 31 236 101 l58 57 108 -28 c100 -26 298 -93 309 -104 9 -8 -37
-147 -69 -211 -117 -232 -322 -415 -555 -496 -198 -69 -447 -69 -643 -1 -292
101 -524 348 -613 650 l-16 52 37 16 c153 64 476 144 662 163 161 16 151 18
196 -46z"/>
<path d="M1187 1275 c-70 -24 -117 -88 -117 -157 0 -52 40 -119 86 -145 137
-79 300 65 236 208 -23 53 -48 76 -99 95 -47 16 -59 16 -106 -1z m123 -24
c108 -57 108 -211 0 -268 -52 -28 -82 -29 -137 -4 -147 67 -96 289 67 291 19
0 51 -8 70 -19z"/>
</g>
</svg>
